<?xml version="1.0" encoding="UTF-8"?>
<!DOCTYPE svg PUBLIC "-//W3C//DTD SVG 1.1//EN" "http://www.w3.org/Graphics/SVG/1.1/DTD/svg11.dtd">
<svg xmlns="http://www.w3.org/2000/svg" version="1.1" width="500px" height="500px" style="shape-rendering:geometricPrecision; text-rendering:geometricPrecision; image-rendering:optimizeQuality; fill-rule:evenodd; clip-rule:evenodd" xmlns:xlink="http://www.w3.org/1999/xlink">
<g><path style="opacity:1" fill="#030303" d="M -0.5,-0.5 C 9.16667,-0.5 18.8333,-0.5 28.5,-0.5C 28.1667,166.167 27.8333,332.833 27.5,499.5C 18.1667,499.5 8.83333,499.5 -0.5,499.5C -0.5,332.833 -0.5,166.167 -0.5,-0.5 Z"/></g>
<g><path style="opacity:1" fill="#090909" d="M 28.5,-0.5 C 37.1667,-0.5 45.8333,-0.5 54.5,-0.5C 54.1667,166.167 53.8333,332.833 53.5,499.5C 44.8333,499.5 36.1667,499.5 27.5,499.5C 27.8333,332.833 28.1667,166.167 28.5,-0.5 Z"/></g>
<g><path style="opacity:1" fill="#0f0f0f" d="M 54.5,-0.5 C 63.1667,-0.5 71.8333,-0.5 80.5,-0.5C 80.1667,166.167 79.8333,332.833 79.5,499.5C 70.8333,499.5 62.1667,499.5 53.5,499.5C 53.8333,332.833 54.1667,166.167 54.5,-0.5 Z"/></g>
<g><path style="opacity:1" fill="#151515" d="M 80.5,-0.5 C 89.1667,-0.5 97.8333,-0.5 106.5,-0.5C 106.071,76.048 106.071,152.715 106.5,229.5C 106.5,230.833 106.5,232.167 106.5,233.5C 106.5,235.167 106.5,236.833 106.5,238.5C 105.414,249.006 105.414,259.673 106.5,270.5C 105.738,346.951 105.404,423.284 105.5,499.5C 96.8333,499.5 88.1667,499.5 79.5,499.5C 79.8333,332.833 80.1667,166.167 80.5,-0.5 Z"/></g>
<g><path style="opacity:1" fill="#1c1c1c" d="M 106.5,-0.5 C 116.5,-0.5 126.5,-0.5 136.5,-0.5C 136.5,53.1667 136.5,106.833 136.5,160.5C 132.655,165.525 129.322,170.858 126.5,176.5C 129.261,172.65 132.261,168.983 135.5,165.5C 136.833,215.167 136.833,264.833 135.5,314.5C 134.5,313.833 133.5,313.167 132.5,312.5C 127.221,304.264 122.221,295.931 117.5,287.5C 113.536,276.306 110.536,264.973 108.5,253.5C 108.5,252.167 108.5,250.833 108.5,249.5C 108.334,241.826 108.5,234.159 109,226.5C 110.681,218.111 112.514,209.778 114.5,201.5C 113.207,202.842 112.374,204.509 112,206.5C 109.726,214.198 107.893,221.864 106.5,229.5C 106.071,152.715 106.071,76.048 106.5,-0.5 Z"/></g>
<g><path style="opacity:1" fill="#222222" d="M 136.5,-0.5 C 145.833,-0.5 155.167,-0.5 164.5,-0.5C 164.264,43.7155 164.264,87.8821 164.5,132C 163.5,132.333 162.5,132.667 161.5,133C 162.381,133.708 163.047,134.542 163.5,135.5C 154.187,141.813 146.187,149.48 139.5,158.5C 138.5,159.167 137.5,159.833 136.5,160.5C 136.5,106.833 136.5,53.1667 136.5,-0.5 Z"/></g>
<g><path style="opacity:1" fill="#2e2e2e" d="M 190.5,-0.5 C 199.167,-0.5 207.833,-0.5 216.5,-0.5C 216.5,37.1667 216.5,74.8333 216.5,112.5C 206.764,114.301 197.431,117.301 188.5,121.5C 188.586,120.504 188.252,119.671 187.5,119C 188.5,118.667 189.5,118.333 190.5,118C 189.402,78.5488 189.402,39.0488 190.5,-0.5 Z"/></g>
<g><path style="opacity:1" fill="#353534" d="M 216.5,-0.5 C 225.833,-0.5 235.167,-0.5 244.5,-0.5C 244.167,36.1667 243.833,72.8333 243.5,109.5C 234.367,109.7 225.367,110.7 216.5,112.5C 216.5,74.8333 216.5,37.1667 216.5,-0.5 Z"/></g>
<g><path style="opacity:1" fill="#3b3b3b" d="M 244.5,-0.5 C 253.167,-0.5 261.833,-0.5 270.5,-0.5C 270.167,36.8333 269.833,74.1667 269.5,111.5C 265.202,110.8 260.869,110.467 256.5,110.5C 255.791,109.596 254.791,109.263 253.5,109.5C 250.167,109.5 246.833,109.5 243.5,109.5C 243.833,72.8333 244.167,36.1667 244.5,-0.5 Z"/></g>
<g><path style="opacity:1" fill="#414141" d="M 270.5,-0.5 C 279.833,-0.5 289.167,-0.5 298.5,-0.5C 297.835,39.3319 297.501,78.9986 297.5,118.5C 288.247,115.853 278.914,113.52 269.5,111.5C 269.833,74.1667 270.167,36.8333 270.5,-0.5 Z"/></g>
<g><path style="opacity:1" fill="#474747" d="M 298.5,-0.5 C 307.167,-0.5 315.833,-0.5 324.5,-0.5C 323.402,43.0488 323.402,86.5488 324.5,130C 323.552,130.483 322.552,130.649 321.5,130.5C 320.167,130.167 318.833,129.833 317.5,129.5C 313.419,126.126 308.753,123.793 303.5,122.5C 301.5,121.167 299.5,119.833 297.5,118.5C 297.501,78.9986 297.835,39.3319 298.5,-0.5 Z"/></g>
<g><path style="opacity:1" fill="#4e4e4e" d="M 324.5,-0.5 C 334.5,-0.5 344.5,-0.5 354.5,-0.5C 354.501,52.0011 354.168,104.334 353.5,156.5C 343.678,146.667 333.012,138 321.5,130.5C 322.552,130.649 323.552,130.483 324.5,130C 323.402,86.5488 323.402,43.0488 324.5,-0.5 Z"/></g>
<g><path style="opacity:1" fill="#5a5a5a" d="M 380.5,-0.5 C 389.167,-0.5 397.833,-0.5 406.5,-0.5C 406.167,166.167 405.833,332.833 405.5,499.5C 396.833,499.5 388.167,499.5 379.5,499.5C 380.069,440.952 380.402,382.452 380.5,324C 379.906,323.536 379.239,323.369 378.5,323.5C 385.775,310.396 389.941,296.396 391,281.5C 388.717,293.325 385.217,304.659 380.5,315.5C 379.832,302.166 379.832,288.999 380.5,276C 379.956,275.283 379.289,274.783 378.5,274.5C 379.369,272.283 379.702,269.95 379.5,267.5C 379.595,261.611 379.929,255.778 380.5,250C 379.906,249.536 379.239,249.369 378.5,249.5C 378.5,247.5 378.5,245.5 378.5,243.5C 379.289,243.217 379.956,242.717 380.5,242C 379.832,229.001 379.832,215.834 380.5,202.5C 387.328,217.812 391.328,233.812 392.5,250.5C 392.379,260.519 392.213,270.519 392,280.5C 393.332,268.876 393.832,257.21 393.5,245.5C 391.971,229.261 387.637,213.927 380.5,199.5C 380.371,197.784 380.038,196.117 379.5,194.5C 379.501,129.666 379.834,64.6658 380.5,-0.5 Z"/></g>
<g><path style="opacity:1" fill="#606060" d="M 406.5,-0.5 C 415.167,-0.5 423.833,-0.5 432.5,-0.5C 432.167,166.167 431.833,332.833 431.5,499.5C 422.833,499.5 414.167,499.5 405.5,499.5C 405.833,332.833 406.167,166.167 406.5,-0.5 Z"/></g>
<g><path style="opacity:1" fill="#666666" d="M 432.5,-0.5 C 442.5,-0.5 452.5,-0.5 462.5,-0.5C 462.167,166.167 461.833,332.833 461.5,499.5C 451.5,499.5 441.5,499.5 431.5,499.5C 431.833,332.833 432.167,166.167 432.5,-0.5 Z"/></g>
<g><path style="opacity:1" fill="#6d6d6d" d="M 462.5,-0.5 C 471.167,-0.5 479.833,-0.5 488.5,-0.5C 488.167,166.167 487.833,332.833 487.5,499.5C 478.833,499.5 470.167,499.5 461.5,499.5C 461.833,332.833 462.167,166.167 462.5,-0.5 Z"/></g>
<g><path style="opacity:1" fill="#717171" d="M 488.5,-0.5 C 492.167,-0.5 495.833,-0.5 499.5,-0.5C 499.5,166.167 499.5,332.833 499.5,499.5C 495.5,499.5 491.5,499.5 487.5,499.5C 487.833,332.833 488.167,166.167 488.5,-0.5 Z"/></g>
<g><path style="opacity:1" fill="#7f663f" d="M 253.5,109.5 C 254.791,109.263 255.791,109.596 256.5,110.5C 255.508,110.328 254.842,110.662 254.5,111.5C 251.167,111.5 247.833,111.5 244.5,111.5C 243.167,111.5 241.833,111.5 240.5,111.5C 244.833,110.833 249.167,110.167 253.5,109.5 Z"/></g>
<g><path style="opacity:1" fill="#ac7a38" d="M 243.5,109.5 C 246.833,109.5 250.167,109.5 253.5,109.5C 249.167,110.167 244.833,110.833 240.5,111.5C 231.865,111.133 223.532,112.133 215.5,114.5C 207.663,115.944 199.996,118.111 192.5,121C 191.058,121.377 190.058,122.21 189.5,123.5C 184.921,123.66 184.588,122.993 188.5,121.5C 197.431,117.301 206.764,114.301 216.5,112.5C 225.367,110.7 234.367,109.7 243.5,109.5 Z"/></g>
<g><path style="opacity:1" fill="#353535" d="M 240.5,111.5 C 241.833,111.5 243.167,111.5 244.5,111.5C 243.596,144.715 243.596,178.048 244.5,211.5C 237.841,219.492 230.841,227.159 223.5,234.5C 222.506,224.681 222.173,214.681 222.5,204.5C 222.273,202.067 223.273,200.401 225.5,199.5C 226.376,199.631 227.043,199.298 227.5,198.5C 223.555,197.509 219.555,197.176 215.5,197.5C 216.833,169.833 216.833,142.167 215.5,114.5C 223.532,112.133 231.865,111.133 240.5,111.5 Z"/></g>
<g><path style="opacity:1" fill="#3b3b3b" d="M 244.5,111.5 C 247.833,111.5 251.167,111.5 254.5,111.5C 260.552,111.731 266.552,112.398 272.5,113.5C 271.402,118.383 271.402,123.216 272.5,128C 271.619,128.708 270.953,129.542 270.5,130.5C 266.315,132.913 265.481,136.246 268,140.5C 269.113,141.305 270.279,141.972 271.5,142.5C 272.069,174.381 272.402,206.214 272.5,238C 268.975,238.179 265.641,238.679 262.5,239.5C 260.379,239.325 258.379,239.659 256.5,240.5C 254.665,236.344 252.999,232.011 251.5,227.5C 249.948,226.202 248.948,226.535 248.5,228.5C 244.576,226.158 240.243,224.824 235.5,224.5C 240.851,218.983 246.018,213.316 251,207.5C 253.747,204.246 256.914,201.58 260.5,199.5C 261.376,199.631 262.043,199.298 262.5,198.5C 257.167,197.167 251.833,197.167 246.5,198.5C 247.325,199.386 248.325,199.719 249.5,199.5C 251.441,201.011 251.941,203.011 251,205.5C 248.963,207.706 246.797,209.706 244.5,211.5C 243.596,178.048 243.596,144.715 244.5,111.5 Z"/></g>
<g><path style="opacity:1" fill="#2f2f2e" d="M 215.5,114.5 C 216.833,142.167 216.833,169.833 215.5,197.5C 212.428,197.183 209.428,197.516 206.5,198.5C 206.957,199.298 207.624,199.631 208.5,199.5C 210.173,200.343 211.34,201.676 212,203.5C 212.667,221.5 212.667,239.5 212,257.5C 211.664,261.039 209.831,263.206 206.5,264C 209.482,264.498 212.482,264.665 215.5,264.5C 215.597,289.05 215.93,313.55 216.5,338C 215.906,338.464 215.239,338.631 214.5,338.5C 213.5,338.5 212.5,338.5 211.5,338.5C 212.091,339.151 212.757,339.818 213.5,340.5C 213,340.833 212.5,341.167 212,341.5C 206.35,339.236 200.517,338.402 194.5,339C 201.912,339.775 208.912,341.608 215.5,344.5C 214.508,344.328 213.842,344.662 213.5,345.5C 203.825,341.943 193.825,340.443 183.5,341C 185.833,341.333 188.167,341.667 190.5,342C 189.944,342.383 189.611,342.883 189.5,343.5C 180.053,342.759 170.72,341.259 161.5,339C 166.833,338.333 166.833,337.667 161.5,337C 163.708,336.809 165.708,336.309 167.5,335.5C 168.167,335.5 168.833,335.5 169.5,335.5C 179.893,335.919 186.893,335.586 190.5,334.5C 189.402,274.951 189.402,215.451 190.5,156C 189.429,155.148 188.429,154.315 187.5,153.5C 188.756,153.539 189.756,153.039 190.5,152C 188.685,151.243 187.019,150.41 185.5,149.5C 187.179,149.108 188.846,148.608 190.5,148C 190.269,139.713 189.936,131.547 189.5,123.5C 190.058,122.21 191.058,121.377 192.5,121C 199.996,118.111 207.663,115.944 215.5,114.5 Z"/></g>
<g><path style="opacity:1" fill="#414140" d="M 272.5,113.5 C 281.452,115.238 290.118,117.905 298.5,121.5C 298.264,125.716 298.264,129.882 298.5,134C 297.5,134.333 296.5,134.667 295.5,135C 295.833,135.333 296.167,135.667 296.5,136C 295.584,136.278 294.918,136.778 294.5,137.5C 293.369,140.889 292.036,144.222 290.5,147.5C 292.537,148.602 293.87,147.935 294.5,145.5C 296.196,145.685 297.529,146.519 298.5,148C 297.402,188.785 297.402,229.618 298.5,270.5C 291.492,270.334 284.492,270.5 277.5,271C 280.232,271.398 282.065,272.898 283,275.5C 283.5,283.493 283.666,291.493 283.5,299.5C 262.532,304.093 248.698,296.093 242,275.5C 241.123,268.751 241.456,262.084 243,255.5C 243.914,253.336 245.081,251.336 246.5,249.5C 248.122,255.255 251.122,260.088 255.5,264C 259.809,265.198 263.476,264.198 266.5,261C 261.869,261.199 259.203,259.033 258.5,254.5C 259.586,254.38 260.253,253.713 260.5,252.5C 259.481,249.14 258.481,245.807 257.5,242.5C 270.09,241.042 279.923,245.709 287,256.5C 290.154,253.146 290.654,249.646 288.5,246C 280.599,240.868 271.932,238.701 262.5,239.5C 265.641,238.679 268.975,238.179 272.5,238C 272.402,206.214 272.069,174.381 271.5,142.5C 275.075,142.548 277.409,140.881 278.5,137.5C 276.5,136.167 274.5,136.167 272.5,137.5C 274.693,139.382 274.027,139.882 270.5,139C 269.424,137.274 269.257,135.441 270,133.5C 272.916,131.98 275.249,132.647 277,135.5C 277.5,135.167 278,134.833 278.5,134.5C 276.891,131.106 274.224,129.773 270.5,130.5C 270.953,129.542 271.619,128.708 272.5,128C 271.402,123.216 271.402,118.383 272.5,113.5 Z"/></g>
<g><path style="opacity:1" fill="#bf9c55" d="M 254.5,111.5 C 254.842,110.662 255.508,110.328 256.5,110.5C 260.869,110.467 265.202,110.8 269.5,111.5C 278.914,113.52 288.247,115.853 297.5,118.5C 299.5,119.833 301.5,121.167 303.5,122.5C 301.784,122.371 300.117,122.038 298.5,121.5C 290.118,117.905 281.452,115.238 272.5,113.5C 266.552,112.398 260.552,111.731 254.5,111.5 Z"/></g>
<g><path style="opacity:1" fill="#474747" d="M 298.5,121.5 C 300.117,122.038 301.784,122.371 303.5,122.5C 307.849,125.341 312.516,127.674 317.5,129.5C 319.531,131.522 321.865,133.189 324.5,134.5C 323.596,215.952 323.596,297.285 324.5,378.5C 317.075,381.697 309.408,384.197 301.5,386C 296.316,386.816 291.316,386.65 286.5,385.5C 290.703,385.924 294.703,385.424 298.5,384C 297.167,347.333 297.167,310.667 298.5,274C 297.956,273.283 297.289,272.783 296.5,272.5C 297.263,271.732 298.263,271.232 299.5,271C 299.272,270.601 298.938,270.435 298.5,270.5C 297.402,229.618 297.402,188.785 298.5,148C 297.529,146.519 296.196,145.685 294.5,145.5C 295.298,143.114 296.298,140.78 297.5,138.5C 296.675,137.614 295.675,137.281 294.5,137.5C 294.918,136.778 295.584,136.278 296.5,136C 296.167,135.667 295.833,135.333 295.5,135C 296.5,134.667 297.5,134.333 298.5,134C 298.264,129.882 298.264,125.716 298.5,121.5 Z"/></g>
<g><path style="opacity:1" fill="#292928" d="M 164.5,-0.5 C 173.167,-0.5 181.833,-0.5 190.5,-0.5C 189.402,39.0488 189.402,78.5488 190.5,118C 189.5,118.333 188.5,118.667 187.5,119C 188.252,119.671 188.586,120.504 188.5,121.5C 184.588,122.993 184.921,123.66 189.5,123.5C 189.936,131.547 190.269,139.713 190.5,148C 188.846,148.608 187.179,149.108 185.5,149.5C 184.959,147.25 184.626,144.916 184.5,142.5C 183.043,144.275 181.876,146.275 181,148.5C 180.149,145.388 178.983,145.054 177.5,147.5C 178.789,150.58 180.455,153.414 182.5,156C 183.332,156.688 183.998,156.521 184.5,155.5C 181.862,150.967 182.862,150.301 187.5,153.5C 188.429,154.315 189.429,155.148 190.5,156C 189.402,215.451 189.402,274.951 190.5,334.5C 181.164,333.999 171.83,333.833 162.5,334C 165.036,334.186 167.369,334.686 169.5,335.5C 168.833,335.5 168.167,335.5 167.5,335.5C 164.393,335.649 161.393,335.149 158.5,334C 159.737,333.768 160.737,333.268 161.5,332.5C 162.552,332.649 163.552,332.483 164.5,332C 164.5,268 164.5,204 164.5,140C 163.956,139.283 163.289,138.783 162.5,138.5C 165.833,135.833 169.167,133.167 172.5,130.5C 169.262,131.738 166.262,133.404 163.5,135.5C 163.047,134.542 162.381,133.708 161.5,133C 162.5,132.667 163.5,132.333 164.5,132C 164.264,87.8821 164.264,43.7155 164.5,-0.5 Z"/></g>
<g><path style="opacity:1" fill="#caa95f" d="M 303.5,122.5 C 308.753,123.793 313.419,126.126 317.5,129.5C 312.516,127.674 307.849,125.341 303.5,122.5 Z"/></g>
<g><path style="opacity:1" fill="#a4702f" d="M 172.5,130.5 C 174.331,128.251 176.664,127.085 179.5,127C 177.423,128.705 175.09,129.872 172.5,130.5 Z"/></g>
<g><path style="opacity:1" fill="#daba62" d="M 225.5,128.5 C 226.5,128.5 227.5,128.5 228.5,128.5C 228.963,131.482 229.296,134.482 229.5,137.5C 230.833,137.5 232.167,137.5 233.5,137.5C 233.5,138.5 233.5,139.5 233.5,140.5C 231.5,140.5 229.5,140.5 227.5,140.5C 226.833,136.5 226.167,132.5 225.5,128.5 Z"/></g>
<g><path style="opacity:1" fill="#dfbe64" d="M 270.5,130.5 C 274.224,129.773 276.891,131.106 278.5,134.5C 278,134.833 277.5,135.167 277,135.5C 275.249,132.647 272.916,131.98 270,133.5C 269.257,135.441 269.424,137.274 270.5,139C 274.027,139.882 274.693,139.382 272.5,137.5C 274.5,136.167 276.5,136.167 278.5,137.5C 277.409,140.881 275.075,142.548 271.5,142.5C 270.279,141.972 269.113,141.305 268,140.5C 265.481,136.246 266.315,132.913 270.5,130.5 Z"/></g>
<g><path style="opacity:1" fill="#a77432" d="M 172.5,130.5 C 169.167,133.167 165.833,135.833 162.5,138.5C 154.242,144.42 146.575,151.087 139.5,158.5C 146.187,149.48 154.187,141.813 163.5,135.5C 166.262,133.404 169.262,131.738 172.5,130.5 Z"/></g>
<g><path style="opacity:1" fill="#debe65" d="M 294.5,137.5 C 295.675,137.281 296.675,137.614 297.5,138.5C 296.298,140.78 295.298,143.114 294.5,145.5C 293.87,147.935 292.537,148.602 290.5,147.5C 292.036,144.222 293.369,140.889 294.5,137.5 Z"/></g>
<g><path style="opacity:1" fill="#222222" d="M 162.5,138.5 C 163.289,138.783 163.956,139.283 164.5,140C 164.5,204 164.5,268 164.5,332C 163.552,332.483 162.552,332.649 161.5,332.5C 153.721,331.386 147.054,328.053 141.5,322.5C 139.091,320.098 137.091,317.431 135.5,314.5C 136.833,264.833 136.833,215.167 135.5,165.5C 136.833,163.167 138.167,160.833 139.5,158.5C 146.575,151.087 154.242,144.42 162.5,138.5 Z"/></g>
<g><path style="opacity:1" fill="#d8b861" d="M 203.5,134.5 C 204.552,134.351 205.552,134.517 206.5,135C 208.714,137.925 211.047,140.759 213.5,143.5C 213,143.833 212.5,144.167 212,144.5C 210.699,143.107 209.199,142.607 207.5,143C 206.069,144.562 204.569,146.062 203,147.5C 202.232,143.08 202.398,138.747 203.5,134.5 Z"/></g>
<g><path style="opacity:1" fill="#353431" d="M 205.5,138.5 C 207.76,139.238 207.927,140.238 206,141.5C 205.517,140.552 205.351,139.552 205.5,138.5 Z"/></g>
<g><path style="opacity:1" fill="#e1bf63" d="M 185.5,149.5 C 187.019,150.41 188.685,151.243 190.5,152C 189.756,153.039 188.756,153.539 187.5,153.5C 182.862,150.301 181.862,150.967 184.5,155.5C 183.998,156.521 183.332,156.688 182.5,156C 180.455,153.414 178.789,150.58 177.5,147.5C 178.983,145.054 180.149,145.388 181,148.5C 181.876,146.275 183.043,144.275 184.5,142.5C 184.626,144.916 184.959,147.25 185.5,149.5 Z"/></g>
<g><path style="opacity:1" fill="#e1c066" d="M 312.5,145.5 C 314.636,146.403 316.636,147.569 318.5,149C 316.863,150.951 315.363,150.784 314,148.5C 313.376,150.464 313.876,152.131 315.5,153.5C 313.979,153.88 312.313,154.046 310.5,154C 309.568,156.651 308.235,156.985 306.5,155C 308.636,151.89 310.636,148.723 312.5,145.5 Z"/></g>
<g><path style="opacity:1" fill="#b58442" d="M 317.5,129.5 C 318.833,129.833 320.167,130.167 321.5,130.5C 333.012,138 343.678,146.667 353.5,156.5C 356.421,160.019 359.087,163.686 361.5,167.5C 358.473,165.14 355.806,162.473 353.5,159.5C 344.743,150.074 335.077,141.741 324.5,134.5C 321.865,133.189 319.531,131.522 317.5,129.5 Z"/></g>
<g><path style="opacity:1" fill="#555454" d="M 354.5,-0.5 C 363.167,-0.5 371.833,-0.5 380.5,-0.5C 379.834,64.6658 379.501,129.666 379.5,194.5C 378.442,193.4 377.608,192.066 377,190.5C 376.346,189.304 375.846,189.304 375.5,190.5C 376.941,193.724 378.608,196.724 380.5,199.5C 380.5,200.5 380.5,201.5 380.5,202.5C 379.832,215.834 379.832,229.001 380.5,242C 379.956,242.717 379.289,243.217 378.5,243.5C 376.484,240.856 373.817,240.023 370.5,241C 366.5,244.667 366.5,248.333 370.5,252C 373.775,252.982 376.441,252.149 378.5,249.5C 379.239,249.369 379.906,249.536 380.5,250C 379.929,255.778 379.595,261.611 379.5,267.5C 375.5,267.5 371.5,267.5 367.5,267.5C 367.5,268.5 367.5,269.5 367.5,270.5C 368.833,270.5 370.167,270.5 371.5,270.5C 371.916,275.187 374.249,276.521 378.5,274.5C 379.289,274.783 379.956,275.283 380.5,276C 379.832,288.999 379.832,302.166 380.5,315.5C 378.785,319.931 376.785,324.265 374.5,328.5C 374.846,329.696 375.346,329.696 376,328.5C 376.847,326.807 377.68,325.14 378.5,323.5C 379.239,323.369 379.906,323.536 380.5,324C 380.402,382.452 380.069,440.952 379.5,499.5C 370.833,499.5 362.167,499.5 353.5,499.5C 354.069,452.952 354.402,406.452 354.5,360C 352.811,360.134 351.144,360.634 349.5,361.5C 351.348,359.484 353.015,357.317 354.5,355C 353.913,304.541 353.58,254.041 353.5,203.5C 355.467,203.739 357.301,203.406 359,202.5C 358.947,200.064 359.113,197.731 359.5,195.5C 360.167,197.167 360.833,198.833 361.5,200.5C 364.21,197.785 363.877,195.285 360.5,193C 357.771,192.199 356.105,193.199 355.5,196C 356.343,197.935 356.343,199.769 355.5,201.5C 353.404,200.38 353.07,198.88 354.5,197C 353.956,196.283 353.289,195.783 352.5,195.5C 352.918,194.778 353.584,194.278 354.5,194C 353.497,182.677 353.164,171.177 353.5,159.5C 355.806,162.473 358.473,165.14 361.5,167.5C 359.087,163.686 356.421,160.019 353.5,156.5C 354.168,104.334 354.501,52.0011 354.5,-0.5 Z"/></g>
<g><path style="opacity:1" fill="#ab6d2b" d="M 361.5,167.5 C 363.262,168.262 364.262,169.596 364.5,171.5C 362.738,170.738 361.738,169.404 361.5,167.5 Z"/></g>
<g><path style="opacity:1" fill="#987136" d="M 139.5,158.5 C 138.167,160.833 136.833,163.167 135.5,165.5C 132.261,168.983 129.261,172.65 126.5,176.5C 129.322,170.858 132.655,165.525 136.5,160.5C 137.5,159.833 138.5,159.167 139.5,158.5 Z"/></g>
<g><path style="opacity:1" fill="#a46427" d="M 364.5,171.5 C 366.887,173.913 369.054,176.58 371,179.5C 372.301,181.402 372.968,183.402 373,185.5C 369.893,180.944 367.06,176.277 364.5,171.5 Z"/></g>
<g><path style="opacity:1" fill="#98753a" d="M 126.5,176.5 C 126.205,178.423 125.372,180.09 124,181.5C 123.751,179.332 124.584,177.665 126.5,176.5 Z"/></g>
<g><path style="opacity:1" fill="#a08043" d="M 114.5,201.5 C 114.965,197.938 116.132,194.605 118,191.5C 117.728,195.148 116.562,198.482 114.5,201.5 Z"/></g>
<g><path style="opacity:1" fill="#e4c267" d="M 353.5,203.5 C 351.408,200.966 351.074,198.299 352.5,195.5C 353.289,195.783 353.956,196.283 354.5,197C 353.07,198.88 353.404,200.38 355.5,201.5C 356.343,199.769 356.343,197.935 355.5,196C 356.105,193.199 357.771,192.199 360.5,193C 363.877,195.285 364.21,197.785 361.5,200.5C 360.833,198.833 360.167,197.167 359.5,195.5C 359.113,197.731 358.947,200.064 359,202.5C 357.301,203.406 355.467,203.739 353.5,203.5 Z"/></g>
<g><path style="opacity:1" fill="#a67339" d="M 379.5,194.5 C 380.038,196.117 380.371,197.784 380.5,199.5C 378.608,196.724 376.941,193.724 375.5,190.5C 375.846,189.304 376.346,189.304 377,190.5C 377.608,192.066 378.442,193.4 379.5,194.5 Z"/></g>
<g><path style="opacity:1" fill="#7e6e43" d="M 215.5,197.5 C 219.555,197.176 223.555,197.509 227.5,198.5C 227.043,199.298 226.376,199.631 225.5,199.5C 219.833,198.167 214.167,198.167 208.5,199.5C 207.624,199.631 206.957,199.298 206.5,198.5C 209.428,197.516 212.428,197.183 215.5,197.5 Z"/></g>
<g><path style="opacity:1" fill="#827248" d="M 260.5,199.5 C 256.833,198.167 253.167,198.167 249.5,199.5C 248.325,199.719 247.325,199.386 246.5,198.5C 251.833,197.167 257.167,197.167 262.5,198.5C 262.043,199.298 261.376,199.631 260.5,199.5 Z"/></g>
<g><path style="opacity:1" fill="#be9e53" d="M 114.5,201.5 C 112.514,209.778 110.681,218.111 109,226.5C 108.5,234.159 108.334,241.826 108.5,249.5C 107.833,244.167 107.167,238.833 106.5,233.5C 106.5,232.167 106.5,230.833 106.5,229.5C 107.893,221.864 109.726,214.198 112,206.5C 112.374,204.509 113.207,202.842 114.5,201.5 Z"/></g>
<g><path style="opacity:1" fill="#e8c568" d="M 370.5,214.5 C 371.478,214.811 372.145,215.478 372.5,216.5C 369.658,217.004 368.325,218.671 368.5,221.5C 370.75,221.181 372.75,221.681 374.5,223C 371.274,224.464 367.941,225.631 364.5,226.5C 362.122,224.47 362.789,223.47 366.5,223.5C 366.67,222.178 366.337,221.011 365.5,220C 363.775,220.409 362.108,220.242 360.5,219.5C 363.653,217.45 366.986,215.784 370.5,214.5 Z"/></g>
<g><path style="opacity:1" fill="#e8c25c" d="M 208.5,199.5 C 214.167,198.167 219.833,198.167 225.5,199.5C 223.273,200.401 222.273,202.067 222.5,204.5C 221.341,214.992 221.175,225.659 222,236.5C 222.717,235.956 223.217,235.289 223.5,234.5C 230.841,227.159 237.841,219.492 244.5,211.5C 246.797,209.706 248.963,207.706 251,205.5C 251.941,203.011 251.441,201.011 249.5,199.5C 253.167,198.167 256.833,198.167 260.5,199.5C 256.914,201.58 253.747,204.246 251,207.5C 246.018,213.316 240.851,218.983 235.5,224.5C 240.243,224.824 244.576,226.158 248.5,228.5C 251.541,237.372 254.874,246.039 258.5,254.5C 259.203,259.033 261.869,261.199 266.5,261C 263.476,264.198 259.809,265.198 255.5,264C 251.122,260.088 248.122,255.255 246.5,249.5C 245.081,251.336 243.914,253.336 243,255.5C 241.456,262.084 241.123,268.751 242,275.5C 248.698,296.093 262.532,304.093 283.5,299.5C 283.666,291.493 283.5,283.493 283,275.5C 282.065,272.898 280.232,271.398 277.5,271C 284.492,270.5 291.492,270.334 298.5,270.5C 298.938,270.435 299.272,270.601 299.5,271C 298.263,271.232 297.263,271.732 296.5,272.5C 294.025,273.687 293.025,275.687 293.5,278.5C 292.833,286.167 292.167,293.833 291.5,301.5C 290.751,299.754 289.417,298.754 287.5,298.5C 282.728,301.419 277.728,303.752 272.5,305.5C 252.028,307.025 238.862,298.025 233,278.5C 231.65,270.361 232.983,262.694 237,255.5C 239.847,251.989 242.68,248.489 245.5,245C 241.457,226.592 233.624,224.759 222,239.5C 221.333,245.5 221.333,251.5 222,257.5C 222.336,261.039 224.169,263.206 227.5,264C 223.514,264.499 219.514,264.666 215.5,264.5C 212.482,264.665 209.482,264.498 206.5,264C 209.831,263.206 211.664,261.039 212,257.5C 212.667,239.5 212.667,221.5 212,203.5C 211.34,201.676 210.173,200.343 208.5,199.5 Z"/></g>
<g><path style="opacity:1" fill="#5b533b" d="M 222.5,204.5 C 222.173,214.681 222.506,224.681 223.5,234.5C 223.217,235.289 222.717,235.956 222,236.5C 221.175,225.659 221.341,214.992 222.5,204.5 Z"/></g>
<g><path style="opacity:1" fill="#110f0b" d="M 256.5,240.5 C 256.328,241.492 256.662,242.158 257.5,242.5C 258.481,245.807 259.481,249.14 260.5,252.5C 260.253,253.713 259.586,254.38 258.5,254.5C 254.874,246.039 251.541,237.372 248.5,228.5C 248.948,226.535 249.948,226.202 251.5,227.5C 252.999,232.011 254.665,236.344 256.5,240.5 Z"/></g>
<g><path style="opacity:1" fill="#373737" d="M 272.5,305.5 C 271.736,330.378 271.402,355.378 271.5,380.5C 267.616,379.276 263.95,377.609 260.5,375.5C 257.792,372.791 254.792,370.458 251.5,368.5C 247.747,363.742 243.414,359.742 238.5,356.5C 235.569,352.903 232.236,349.569 228.5,346.5C 227.707,347.355 228.04,348.189 229.5,349C 228.167,349 226.833,349 225.5,349C 227.792,350.29 229.792,351.957 231.5,354C 225.769,350.972 219.769,348.139 213.5,345.5C 213.842,344.662 214.508,344.328 215.5,344.5C 217.137,345.218 218.803,345.384 220.5,345C 218.833,344.167 217.167,343.333 215.5,342.5C 214.167,341.833 214.167,341.167 215.5,340.5C 218.388,342.29 221.388,343.457 224.5,344C 221.233,341.87 217.9,340.037 214.5,338.5C 215.239,338.631 215.906,338.464 216.5,338C 215.93,313.55 215.597,289.05 215.5,264.5C 219.514,264.666 223.514,264.499 227.5,264C 224.169,263.206 222.336,261.039 222,257.5C 221.333,251.5 221.333,245.5 222,239.5C 233.624,224.759 241.457,226.592 245.5,245C 242.68,248.489 239.847,251.989 237,255.5C 232.983,262.694 231.65,270.361 233,278.5C 238.862,298.025 252.028,307.025 272.5,305.5 Z"/></g>
<g><path style="opacity:1" fill="#b89456" d="M 380.5,199.5 C 387.637,213.927 391.971,229.261 393.5,245.5C 392.549,246.919 392.216,248.585 392.5,250.5C 391.328,233.812 387.328,217.812 380.5,202.5C 380.5,201.5 380.5,200.5 380.5,199.5 Z"/></g>
<g><path style="opacity:1" fill="#e5bf5c" d="M 262.5,239.5 C 271.932,238.701 280.599,240.868 288.5,246C 290.654,249.646 290.154,253.146 287,256.5C 279.923,245.709 270.09,241.042 257.5,242.5C 256.662,242.158 256.328,241.492 256.5,240.5C 258.379,239.659 260.379,239.325 262.5,239.5 Z"/></g>
<g><path style="opacity:1" fill="#eac769" d="M 378.5,243.5 C 378.5,245.5 378.5,247.5 378.5,249.5C 376.441,252.149 373.775,252.982 370.5,252C 366.5,248.333 366.5,244.667 370.5,241C 373.817,240.023 376.484,240.856 378.5,243.5 Z"/></g>
<g><path style="opacity:1" fill="#625f57" d="M 370.5,243.5 C 375.123,242.408 376.956,244.075 376,248.5C 370.799,250.331 368.966,248.665 370.5,243.5 Z"/></g>
<g><path style="opacity:1" fill="#ebb554" d="M 106.5,233.5 C 107.167,238.833 107.833,244.167 108.5,249.5C 108.5,250.833 108.5,252.167 108.5,253.5C 108.785,255.288 108.452,256.955 107.5,258.5C 106.503,251.866 106.17,245.2 106.5,238.5C 106.5,236.833 106.5,235.167 106.5,233.5 Z"/></g>
<g><path style="opacity:1" fill="#dfb55e" d="M 393.5,245.5 C 393.832,257.21 393.332,268.876 392,280.5C 392.213,270.519 392.379,260.519 392.5,250.5C 392.216,248.585 392.549,246.919 393.5,245.5 Z"/></g>
<g><path style="opacity:1" fill="#e3c168" d="M 379.5,267.5 C 379.702,269.95 379.369,272.283 378.5,274.5C 374.249,276.521 371.916,275.187 371.5,270.5C 370.167,270.5 368.833,270.5 367.5,270.5C 367.5,269.5 367.5,268.5 367.5,267.5C 371.5,267.5 375.5,267.5 379.5,267.5 Z"/></g>
<g><path style="opacity:1" fill="#6e6859" d="M 373.5,270.5 C 374.978,270.238 376.311,270.571 377.5,271.5C 375.537,274.194 374.203,273.861 373.5,270.5 Z"/></g>
<g><path style="opacity:1" fill="#1b1b1b" d="M 106.5,270.5 C 108.302,277.379 109.969,284.379 111.5,291.5C 114.683,302.067 119.017,312.067 124.5,321.5C 127.665,327.834 131.331,333.834 135.5,339.5C 136.404,392.952 136.404,446.285 135.5,499.5C 125.5,499.5 115.5,499.5 105.5,499.5C 105.404,423.284 105.738,346.951 106.5,270.5 Z"/></g>
<g><path style="opacity:1" fill="#424241" d="M 296.5,272.5 C 297.289,272.783 297.956,273.283 298.5,274C 297.167,310.667 297.167,347.333 298.5,384C 294.703,385.424 290.703,385.924 286.5,385.5C 282.07,384.881 277.737,383.881 273.5,382.5C 272.833,381.833 272.167,381.167 271.5,380.5C 271.402,355.378 271.736,330.378 272.5,305.5C 277.728,303.752 282.728,301.419 287.5,298.5C 289.417,298.754 290.751,299.754 291.5,301.5C 291.56,302.043 291.893,302.376 292.5,302.5C 293.498,294.528 293.831,286.528 293.5,278.5C 293.025,275.687 294.025,273.687 296.5,272.5 Z"/></g>
<g><path style="opacity:1" fill="#c98632" d="M 106.5,238.5 C 106.17,245.2 106.503,251.866 107.5,258.5C 108.452,256.955 108.785,255.288 108.5,253.5C 110.536,264.973 113.536,276.306 117.5,287.5C 116.292,290.044 114.292,291.378 111.5,291.5C 109.969,284.379 108.302,277.379 106.5,270.5C 105.414,259.673 105.414,249.006 106.5,238.5 Z"/></g>
<g><path style="opacity:1" fill="#9e8950" d="M 293.5,278.5 C 293.831,286.528 293.498,294.528 292.5,302.5C 291.893,302.376 291.56,302.043 291.5,301.5C 292.167,293.833 292.833,286.167 293.5,278.5 Z"/></g>
<g><path style="opacity:1" fill="#a2743f" d="M 378.5,323.5 C 377.68,325.14 376.847,326.807 376,328.5C 375.346,329.696 374.846,329.696 374.5,328.5C 376.785,324.265 378.785,319.931 380.5,315.5C 385.217,304.659 388.717,293.325 391,281.5C 389.941,296.396 385.775,310.396 378.5,323.5 Z"/></g>
<g><path style="opacity:1" fill="#b8691b" d="M 117.5,287.5 C 122.221,295.931 127.221,304.264 132.5,312.5C 131.27,314.297 130.604,316.297 130.5,318.5C 128.801,318.34 127.134,318.506 125.5,319C 124.748,319.671 124.414,320.504 124.5,321.5C 119.017,312.067 114.683,302.067 111.5,291.5C 114.292,291.378 116.292,290.044 117.5,287.5 Z"/></g>
<g><path style="opacity:1" fill="#c98c38" d="M 130.5,318.5 C 132.822,320.494 134.822,322.827 136.5,325.5C 136.782,328.256 136.782,331.089 136.5,334C 137.744,334.456 138.577,333.956 139,332.5C 140.854,335.487 143.021,338.154 145.5,340.5C 145.389,341.117 145.056,341.617 144.5,342C 146.02,343.885 147.02,346.051 147.5,348.5C 146.637,349.726 146.637,351.06 147.5,352.5C 142.802,348.736 138.802,344.403 135.5,339.5C 131.331,333.834 127.665,327.834 124.5,321.5C 124.414,320.504 124.748,319.671 125.5,319C 127.134,318.506 128.801,318.34 130.5,318.5 Z"/></g>
<g><path style="opacity:1" fill="#a6722f" d="M 132.5,312.5 C 133.5,313.167 134.5,313.833 135.5,314.5C 137.091,317.431 139.091,320.098 141.5,322.5C 141.511,324.017 142.177,325.184 143.5,326C 142.833,326.333 142.167,326.667 141.5,327C 142.381,327.708 143.047,328.542 143.5,329.5C 138.676,326.974 138.343,327.808 142.5,332C 141.833,332.333 141.167,332.667 140.5,333C 143.027,335.105 145.36,337.439 147.5,340C 146.906,340.464 146.239,340.631 145.5,340.5C 143.021,338.154 140.854,335.487 139,332.5C 138.577,333.956 137.744,334.456 136.5,334C 136.782,331.089 136.782,328.256 136.5,325.5C 134.822,322.827 132.822,320.494 130.5,318.5C 130.604,316.297 131.27,314.297 132.5,312.5 Z"/></g>
<g><path style="opacity:1" fill="#866d3f" d="M 190.5,334.5 C 186.893,335.586 179.893,335.919 169.5,335.5C 167.369,334.686 165.036,334.186 162.5,334C 171.83,333.833 181.164,333.999 190.5,334.5 Z"/></g>
<g><path style="opacity:1" fill="#78633c" d="M 168.5,337.5 C 176.688,336.427 185.021,336.593 193.5,338C 185.157,338.458 176.824,338.291 168.5,337.5 Z"/></g>
<g><path style="opacity:1" fill="#867347" d="M 211.5,338.5 C 206.81,337.862 202.144,337.029 197.5,336C 202.542,335.266 207.208,336.1 211.5,338.5 Z"/></g>
<g><path style="opacity:1" fill="#8a7140" d="M 166.5,339.5 C 167.622,338.844 168.955,338.511 170.5,338.5C 174.5,339 178.5,339.5 182.5,340C 177.146,340.529 171.813,340.362 166.5,339.5 Z"/></g>
<g><path style="opacity:1" fill="#837148" d="M 211.5,338.5 C 212.5,338.5 213.5,338.5 214.5,338.5C 217.9,340.037 221.233,341.87 224.5,344C 221.388,343.457 218.388,342.29 215.5,340.5C 214.167,341.167 214.167,341.833 215.5,342.5C 217.167,343.333 218.833,344.167 220.5,345C 218.803,345.384 217.137,345.218 215.5,344.5C 208.912,341.608 201.912,339.775 194.5,339C 200.517,338.402 206.35,339.236 212,341.5C 212.5,341.167 213,340.833 213.5,340.5C 212.757,339.818 212.091,339.151 211.5,338.5 Z"/></g>
<g><path style="opacity:1" fill="#222222" d="M 135.5,339.5 C 138.802,344.403 142.802,348.736 147.5,352.5C 147.511,354.017 148.177,355.184 149.5,356C 153.708,359.713 158.041,363.213 162.5,366.5C 163.167,367.5 163.833,368.5 164.5,369.5C 164.167,412.833 163.833,456.167 163.5,499.5C 154.167,499.5 144.833,499.5 135.5,499.5C 136.404,446.285 136.404,392.952 135.5,339.5 Z"/></g>
<g><path style="opacity:1" fill="#966634" d="M 361.5,348.5 C 362.031,346.456 363.198,344.789 365,343.5C 364.923,345.772 363.757,347.438 361.5,348.5 Z"/></g>
<g><path style="opacity:1" fill="#745f39" d="M 141.5,322.5 C 147.054,328.053 153.721,331.386 161.5,332.5C 160.737,333.268 159.737,333.768 158.5,334C 161.393,335.149 164.393,335.649 167.5,335.5C 165.708,336.309 163.708,336.809 161.5,337C 166.833,337.667 166.833,338.333 161.5,339C 170.72,341.259 180.053,342.759 189.5,343.5C 191.224,343.461 191.557,343.794 190.5,344.5C 183.491,343.747 176.491,343.247 169.5,343C 180.209,344.785 190.876,346.785 201.5,349C 188.522,347.938 175.689,345.772 163,342.5C 161.238,342.944 161.405,343.444 163.5,344C 160.833,344.667 160.833,345.333 163.5,346C 160.833,346.667 160.833,347.333 163.5,348C 166.547,348.58 166.881,348.247 164.5,347C 167.167,346.333 167.167,345.667 164.5,345C 167.058,344.725 169.392,345.225 171.5,346.5C 171.5,346.833 171.5,347.167 171.5,347.5C 171.062,347.435 170.728,347.601 170.5,348C 172.932,349.087 172.598,349.587 169.5,349.5C 166.075,349.367 165.742,350.033 168.5,351.5C 170.072,352.687 171.739,353.687 173.5,354.5C 172.448,354.351 171.448,354.517 170.5,355C 172.833,356 175.167,357 177.5,358C 174.313,358.108 171.313,357.275 168.5,355.5C 168.891,356.718 168.224,357.552 166.5,358C 167.833,358.667 169.167,359.333 170.5,360C 169.906,360.464 169.239,360.631 168.5,360.5C 165.243,359.538 162.243,358.038 159.5,356C 160.167,355.667 160.833,355.333 161.5,355C 159.833,354 158.167,353 156.5,352C 158.159,349.774 157.492,348.107 154.5,347C 155.328,346.085 156.328,345.419 157.5,345C 155.203,343.84 155.536,342.84 158.5,342C 155.833,341.333 155.833,340.667 158.5,340C 157.167,339.333 155.833,338.667 154.5,338C 154.833,337.667 155.167,337.333 155.5,337C 154.007,335.632 152.507,335.465 151,336.5C 150.085,335.672 149.419,334.672 149,333.5C 148.667,333.833 148.333,334.167 148,334.5C 147.292,333.619 146.458,332.953 145.5,332.5C 145.573,330.973 144.906,329.973 143.5,329.5C 143.047,328.542 142.381,327.708 141.5,327C 142.167,326.667 142.833,326.333 143.5,326C 142.177,325.184 141.511,324.017 141.5,322.5 Z"/></g>
<g><path style="opacity:1" fill="#34322f" d="M 190.5,344.5 C 198.14,345.866 205.806,347.7 213.5,350C 214.672,350.419 215.672,351.085 216.5,352C 214.153,352.334 211.819,352.167 209.5,351.5C 215.916,354.207 222.249,357.207 228.5,360.5C 230.978,362.803 233.645,364.969 236.5,367C 233.199,366.176 230.199,364.51 227.5,362C 224.029,359.928 220.362,358.428 216.5,357.5C 213.135,355.538 209.468,354.038 205.5,353C 194.24,350.381 182.907,348.215 171.5,346.5C 169.392,345.225 167.058,344.725 164.5,345C 167.167,345.667 167.167,346.333 164.5,347C 166.881,348.247 166.547,348.58 163.5,348C 160.833,347.333 160.833,346.667 163.5,346C 160.833,345.333 160.833,344.667 163.5,344C 161.405,343.444 161.238,342.944 163,342.5C 175.689,345.772 188.522,347.938 201.5,349C 190.876,346.785 180.209,344.785 169.5,343C 176.491,343.247 183.491,343.747 190.5,344.5 Z"/></g>
<g><path style="opacity:1" fill="#5e523d" d="M 213.5,345.5 C 219.769,348.139 225.769,350.972 231.5,354C 229.792,351.957 227.792,350.29 225.5,349C 226.833,349 228.167,349 229.5,349C 228.04,348.189 227.707,347.355 228.5,346.5C 232.236,349.569 235.569,352.903 238.5,356.5C 238.611,357.117 238.944,357.617 239.5,358C 237.776,358.448 237.109,359.282 237.5,360.5C 235.833,359.167 234.167,357.833 232.5,356.5C 232.891,357.718 232.224,358.552 230.5,359C 232.854,361.69 232.187,362.19 228.5,360.5C 222.249,357.207 215.916,354.207 209.5,351.5C 211.819,352.167 214.153,352.334 216.5,352C 215.672,351.085 214.672,350.419 213.5,350C 205.806,347.7 198.14,345.866 190.5,344.5C 191.557,343.794 191.224,343.461 189.5,343.5C 189.611,342.883 189.944,342.383 190.5,342C 188.167,341.667 185.833,341.333 183.5,341C 193.825,340.443 203.825,341.943 213.5,345.5 Z"/></g>
<g><path style="opacity:1" fill="#937d49" d="M 169.5,349.5 C 181.5,353.167 193.5,356.833 205.5,360.5C 193.048,357.97 180.714,354.97 168.5,351.5C 165.742,350.033 166.075,349.367 169.5,349.5 Z"/></g>
<g><path style="opacity:1" fill="#96804c" d="M 209.5,351.5 C 207.073,351.477 204.74,350.977 202.5,350C 205.139,349.412 207.473,349.912 209.5,351.5 Z"/></g>
<g><path style="opacity:1" fill="#947d4a" d="M 171.5,347.5 C 171.5,347.167 171.5,346.833 171.5,346.5C 182.907,348.215 194.24,350.381 205.5,353C 209.468,354.038 213.135,355.538 216.5,357.5C 201.736,353.147 186.736,349.814 171.5,347.5 Z"/></g>
<g><path style="opacity:1" fill="#986936" d="M 361.5,348.5 C 360.287,351.225 358.454,353.559 356,355.5C 356.772,352.536 358.605,350.202 361.5,348.5 Z"/></g>
<g><path style="opacity:1" fill="#32312f" d="M 171.5,347.5 C 186.736,349.814 201.736,353.147 216.5,357.5C 220.103,359.64 223.77,361.807 227.5,364C 223.478,363.17 219.478,362.004 215.5,360.5C 217.054,361.895 216.721,362.561 214.5,362.5C 211.58,361.414 208.58,360.748 205.5,360.5C 193.5,356.833 181.5,353.167 169.5,349.5C 172.598,349.587 172.932,349.087 170.5,348C 170.728,347.601 171.062,347.435 171.5,347.5 Z"/></g>
<g><path style="opacity:1" fill="#98814c" d="M 206.5,357.5 C 195.41,355.448 184.41,352.948 173.5,350C 184.864,351.171 195.864,353.671 206.5,357.5 Z"/></g>
<g><path style="opacity:1" fill="#a68546" d="M 143.5,329.5 C 144.906,329.973 145.573,330.973 145.5,332.5C 144.637,331.537 143.97,331.537 143.5,332.5C 146.022,335.188 148.356,338.021 150.5,341C 150.368,344.075 151.701,346.742 154.5,349C 153.5,351.091 154.167,352.757 156.5,354C 156.167,354.333 155.833,354.667 155.5,355C 159.308,356.298 160.308,358.298 158.5,361C 160.5,362.333 162.5,363.667 164.5,365C 163.584,365.278 162.918,365.778 162.5,366.5C 158.041,363.213 153.708,359.713 149.5,356C 148.177,355.184 147.511,354.017 147.5,352.5C 146.637,351.06 146.637,349.726 147.5,348.5C 147.02,346.051 146.02,343.885 144.5,342C 145.056,341.617 145.389,341.117 145.5,340.5C 146.239,340.631 146.906,340.464 147.5,340C 145.36,337.439 143.027,335.105 140.5,333C 141.167,332.667 141.833,332.333 142.5,332C 138.343,327.808 138.676,326.974 143.5,329.5 Z"/></g>
<g><path style="opacity:1" fill="#98804a" d="M 176.5,355.5 C 186.94,357.86 197.273,360.694 207.5,364C 198.155,362.169 188.822,360.003 179.5,357.5C 178.5,356.833 177.5,356.167 176.5,355.5 Z"/></g>
<g><path style="opacity:1" fill="#8a7241" d="M 145.5,332.5 C 146.458,332.953 147.292,333.619 148,334.5C 148.333,334.167 148.667,333.833 149,333.5C 149.419,334.672 150.085,335.672 151,336.5C 152.507,335.465 154.007,335.632 155.5,337C 155.167,337.333 154.833,337.667 154.5,338C 155.833,338.667 157.167,339.333 158.5,340C 155.833,340.667 155.833,341.333 158.5,342C 155.536,342.84 155.203,343.84 157.5,345C 156.328,345.419 155.328,346.085 154.5,347C 157.492,348.107 158.159,349.774 156.5,352C 158.167,353 159.833,354 161.5,355C 160.833,355.333 160.167,355.667 159.5,356C 162.243,358.038 165.243,359.538 168.5,360.5C 169.403,362.62 170.737,362.954 172.5,361.5C 173.492,361.328 174.158,361.662 174.5,362.5C 173.761,362.369 173.094,362.536 172.5,363C 174.233,364.189 175.9,365.356 177.5,366.5C 175.302,366.409 174.969,367.075 176.5,368.5C 173.577,367.705 170.91,366.372 168.5,364.5C 164.639,365.499 164.639,366.665 168.5,368C 167.584,368.278 166.918,368.778 166.5,369.5C 165.833,369.5 165.167,369.5 164.5,369.5C 163.833,368.5 163.167,367.5 162.5,366.5C 162.918,365.778 163.584,365.278 164.5,365C 162.5,363.667 160.5,362.333 158.5,361C 160.308,358.298 159.308,356.298 155.5,355C 155.833,354.667 156.167,354.333 156.5,354C 154.167,352.757 153.5,351.091 154.5,349C 151.701,346.742 150.368,344.075 150.5,341C 148.356,338.021 146.022,335.188 143.5,332.5C 143.97,331.537 144.637,331.537 145.5,332.5 Z"/></g>
<g><path style="opacity:1" fill="#8f7645" d="M 206.5,357.5 C 209.916,357.528 212.916,358.528 215.5,360.5C 212.215,360.072 209.215,359.072 206.5,357.5 Z"/></g>
<g><path style="opacity:1" fill="#564c38" d="M 173.5,354.5 C 174.791,354.263 175.791,354.596 176.5,355.5C 177.5,356.167 178.5,356.833 179.5,357.5C 179.981,358.821 181.315,359.821 183.5,360.5C 184.5,361.167 185.5,361.833 186.5,362.5C 185.833,362.5 185.5,362.833 185.5,363.5C 183.299,362.434 180.965,361.767 178.5,361.5C 176.323,361.414 174.323,360.747 172.5,359.5C 171.537,359.97 171.537,360.637 172.5,361.5C 170.737,362.954 169.403,362.62 168.5,360.5C 169.239,360.631 169.906,360.464 170.5,360C 169.167,359.333 167.833,358.667 166.5,358C 168.224,357.552 168.891,356.718 168.5,355.5C 171.313,357.275 174.313,358.108 177.5,358C 175.167,357 172.833,356 170.5,355C 171.448,354.517 172.448,354.351 173.5,354.5 Z"/></g>
<g><path style="opacity:1" fill="#4e4e4e" d="M 324.5,134.5 C 335.077,141.741 344.743,150.074 353.5,159.5C 353.164,171.177 353.497,182.677 354.5,194C 353.584,194.278 352.918,194.778 352.5,195.5C 351.074,198.299 351.408,200.966 353.5,203.5C 353.58,254.041 353.913,304.541 354.5,355C 353.015,357.317 351.348,359.484 349.5,361.5C 351.144,360.634 352.811,360.134 354.5,360C 354.402,406.452 354.069,452.952 353.5,499.5C 343.5,499.5 333.5,499.5 323.5,499.5C 324.5,460 324.5,420.667 323.5,381.5C 328.597,378.252 333.597,374.752 338.5,371C 333.827,373.175 329.16,375.675 324.5,378.5C 323.596,297.285 323.596,215.952 324.5,134.5 Z"/></g>
<g><path style="opacity:1" fill="#e3c167" d="M 330.5,158.5 C 333.407,159.734 335.741,161.734 337.5,164.5C 336.284,165.096 334.951,165.263 333.5,165C 331.65,167.018 329.65,168.851 327.5,170.5C 327.167,170.167 326.833,169.833 326.5,169.5C 327.779,166.888 329.445,164.555 331.5,162.5C 329.824,161.272 329.491,159.939 330.5,158.5 Z"/></g>
<g><path style="opacity:1" fill="#393631" d="M 168.5,351.5 C 180.714,354.97 193.048,357.97 205.5,360.5C 211.51,362.679 217.51,365.179 223.5,368C 223,368.5 222.5,369 222,369.5C 219.412,367.635 216.578,366.802 213.5,367C 218.705,368.954 223.705,371.287 228.5,374C 228,374.167 227.5,374.333 227,374.5C 224.953,373.391 222.787,372.724 220.5,372.5C 218.208,370.733 215.542,369.733 212.5,369.5C 207.51,367.061 202.177,365.394 196.5,364.5C 192.498,362.39 188.165,361.057 183.5,360.5C 181.315,359.821 179.981,358.821 179.5,357.5C 188.822,360.003 198.155,362.169 207.5,364C 197.273,360.694 186.94,357.86 176.5,355.5C 175.791,354.596 174.791,354.263 173.5,354.5C 171.739,353.687 170.072,352.687 168.5,351.5 Z"/></g>
<g><path style="opacity:1" fill="#9b824b" d="M 183.5,360.5 C 188.165,361.057 192.498,362.39 196.5,364.5C 193.123,364.041 189.789,363.374 186.5,362.5C 185.5,361.833 184.5,361.167 183.5,360.5 Z"/></g>
<g><path style="opacity:1" fill="#947844" d="M 178.5,361.5 C 180.965,361.767 183.299,362.434 185.5,363.5C 198.205,367.083 210.538,371.416 222.5,376.5C 207.473,372.269 192.806,367.269 178.5,361.5 Z"/></g>
<g><path style="opacity:1" fill="#976b3a" d="M 349.5,361.5 C 347.798,364.395 345.464,366.228 342.5,367C 344.441,364.546 346.775,362.713 349.5,361.5 Z"/></g>
<g><path style="opacity:1" fill="#9e864d" d="M 174.5,362.5 C 177.241,362.707 179.574,363.707 181.5,365.5C 178.759,365.293 176.426,364.293 174.5,362.5 Z"/></g>
<g><path style="opacity:1" fill="#343330" d="M 185.5,363.5 C 185.5,362.833 185.833,362.5 186.5,362.5C 189.789,363.374 193.123,364.041 196.5,364.5C 201.5,366.943 206.834,368.61 212.5,369.5C 214.792,371.267 217.458,372.267 220.5,372.5C 223.717,374.417 227.051,376.251 230.5,378C 227.826,377.847 225.16,377.347 222.5,376.5C 210.538,371.416 198.205,367.083 185.5,363.5 Z"/></g>
<g><path style="opacity:1" fill="#927642" d="M 196.5,364.5 C 202.177,365.394 207.51,367.061 212.5,369.5C 206.834,368.61 201.5,366.943 196.5,364.5 Z"/></g>
<g><path style="opacity:1" fill="#967c47" d="M 181.5,365.5 C 185.537,366.065 189.203,367.399 192.5,369.5C 188.463,368.935 184.797,367.601 181.5,365.5 Z"/></g>
<g><path style="opacity:1" fill="#363330" d="M 178.5,361.5 C 192.806,367.269 207.473,372.269 222.5,376.5C 228.523,379.795 234.856,382.629 241.5,385C 238.498,384.842 235.498,384.342 232.5,383.5C 230.208,381.733 227.542,380.733 224.5,380.5C 214.195,376.064 203.528,372.397 192.5,369.5C 189.203,367.399 185.537,366.065 181.5,365.5C 179.574,363.707 177.241,362.707 174.5,362.5C 174.158,361.662 173.492,361.328 172.5,361.5C 171.537,360.637 171.537,359.97 172.5,359.5C 174.323,360.747 176.323,361.414 178.5,361.5 Z"/></g>
<g><path style="opacity:1" fill="#282828" d="M 164.5,369.5 C 165.167,369.5 165.833,369.5 166.5,369.5C 173.12,375.152 180.453,379.818 188.5,383.5C 188.297,385.39 188.963,386.89 190.5,388C 190.402,425.119 190.069,462.286 189.5,499.5C 180.833,499.5 172.167,499.5 163.5,499.5C 163.833,456.167 164.167,412.833 164.5,369.5 Z"/></g>
<g><path style="opacity:1" fill="#96733d" d="M 192.5,369.5 C 203.528,372.397 214.195,376.064 224.5,380.5C 213.472,377.603 202.805,373.936 192.5,369.5 Z"/></g>
<g><path style="opacity:1" fill="#906f3c" d="M 212.5,369.5 C 215.542,369.733 218.208,370.733 220.5,372.5C 217.458,372.267 214.792,371.267 212.5,369.5 Z"/></g>
<g><path style="opacity:1" fill="#76623c" d="M 176.5,368.5 C 180.762,369.193 181.095,370.026 177.5,371C 180.953,373.24 184.619,374.573 188.5,375C 186.5,374 184.5,373 182.5,372C 183,371.833 183.5,371.667 184,371.5C 187.652,373.078 191.152,374.745 194.5,376.5C 192.901,376.232 191.568,376.566 190.5,377.5C 190.167,377.5 189.833,377.5 189.5,377.5C 185.756,376.279 182.09,375.113 178.5,374C 182.896,376.527 187.229,379.027 191.5,381.5C 191.5,381.833 191.5,382.167 191.5,382.5C 191.12,383.133 190.787,383.8 190.5,384.5C 189.817,384.137 189.15,383.804 188.5,383.5C 180.453,379.818 173.12,375.152 166.5,369.5C 166.918,368.778 167.584,368.278 168.5,368C 164.639,366.665 164.639,365.499 168.5,364.5C 170.91,366.372 173.577,367.705 176.5,368.5 Z"/></g>
<g><path style="opacity:1" fill="#926c38" d="M 239.5,387.5 C 239.5,387.833 239.5,388.167 239.5,388.5C 222.555,383.907 205.888,378.407 189.5,372C 206.117,377.037 222.783,382.204 239.5,387.5 Z"/></g>
<g><path style="opacity:1" fill="#916732" d="M 189.5,377.5 C 189.833,377.5 190.167,377.5 190.5,377.5C 206.39,383.907 222.723,388.907 239.5,392.5C 239.5,392.833 239.5,393.167 239.5,393.5C 222.042,390.346 205.375,385.013 189.5,377.5 Z"/></g>
<g><path style="opacity:1" fill="#363330" d="M 189.5,377.5 C 205.375,385.013 222.042,390.346 239.5,393.5C 239.158,394.338 238.492,394.672 237.5,394.5C 221.709,391.72 206.376,387.386 191.5,381.5C 187.229,379.027 182.896,376.527 178.5,374C 182.09,375.113 185.756,376.279 189.5,377.5 Z"/></g>
<g><path style="opacity:1" fill="#8a6232" d="M 224.5,380.5 C 227.542,380.733 230.208,381.733 232.5,383.5C 229.458,383.267 226.792,382.267 224.5,380.5 Z"/></g>
<g><path style="opacity:1" fill="#665036" d="M 238.5,356.5 C 243.414,359.742 247.747,363.742 251.5,368.5C 250.952,369.688 250.619,370.855 250.5,372C 253.167,372.667 253.167,373.333 250.5,374C 252.864,375.012 254.198,376.345 254.5,378C 253.328,378.419 252.328,379.085 251.5,380C 252.833,380.667 252.833,381.333 251.5,382C 248.456,382.359 248.122,383.026 250.5,384C 248.913,384.862 247.246,385.529 245.5,386C 248.167,386.667 248.167,387.333 245.5,388C 247.878,388.974 247.544,389.641 244.5,390C 245.167,390.333 245.833,390.667 246.5,391C 241.167,391.667 241.167,392.333 246.5,393C 244.613,393.78 242.946,393.613 241.5,392.5C 239.337,391.531 237.004,390.698 234.5,390C 237.167,390 239.833,390 242.5,390C 241.263,389.768 240.263,389.268 239.5,388.5C 239.5,388.167 239.5,387.833 239.5,387.5C 237.738,386.245 235.405,384.911 232.5,383.5C 235.498,384.342 238.498,384.842 241.5,385C 234.856,382.629 228.523,379.795 222.5,376.5C 225.16,377.347 227.826,377.847 230.5,378C 227.051,376.251 223.717,374.417 220.5,372.5C 222.787,372.724 224.953,373.391 227,374.5C 227.5,374.333 228,374.167 228.5,374C 223.705,371.287 218.705,368.954 213.5,367C 216.578,366.802 219.412,367.635 222,369.5C 222.5,369 223,368.5 223.5,368C 217.51,365.179 211.51,362.679 205.5,360.5C 208.58,360.748 211.58,361.414 214.5,362.5C 216.721,362.561 217.054,361.895 215.5,360.5C 219.478,362.004 223.478,363.17 227.5,364C 223.77,361.807 220.103,359.64 216.5,357.5C 220.362,358.428 224.029,359.928 227.5,362C 230.199,364.51 233.199,366.176 236.5,367C 233.645,364.969 230.978,362.803 228.5,360.5C 232.187,362.19 232.854,361.69 230.5,359C 232.224,358.552 232.891,357.718 232.5,356.5C 234.167,357.833 235.833,359.167 237.5,360.5C 237.109,359.282 237.776,358.448 239.5,358C 238.944,357.617 238.611,357.117 238.5,356.5 Z"/></g>
<g><path style="opacity:1" fill="#474747" d="M 323.5,381.5 C 324.5,420.667 324.5,460 323.5,499.5C 314.833,499.5 306.167,499.5 297.5,499.5C 297.597,464.283 297.931,429.117 298.5,394C 297.552,393.517 296.552,393.351 295.5,393.5C 304.997,390.09 314.331,386.09 323.5,381.5 Z"/></g>
<g><path style="opacity:1" fill="#926530" d="M 191.5,382.5 C 191.5,382.167 191.5,381.833 191.5,381.5C 206.376,387.386 221.709,391.72 237.5,394.5C 237.5,395.167 237.167,395.5 236.5,395.5C 220.969,392.99 205.969,388.656 191.5,382.5 Z"/></g>
<g><path style="opacity:1" fill="#2f2e2e" d="M 191.5,382.5 C 205.969,388.656 220.969,392.99 236.5,395.5C 236.158,396.338 235.492,396.672 234.5,396.5C 223.985,394.954 213.651,392.621 203.5,389.5C 207.266,391.539 211.266,393.205 215.5,394.5C 215.5,429.5 215.5,464.5 215.5,499.5C 206.833,499.5 198.167,499.5 189.5,499.5C 190.069,462.286 190.402,425.119 190.5,388C 188.963,386.89 188.297,385.39 188.5,383.5C 189.15,383.804 189.817,384.137 190.5,384.5C 190.787,383.8 191.12,383.133 191.5,382.5 Z"/></g>
<g><path style="opacity:1" fill="#986f37" d="M 203.5,389.5 C 199.938,389.035 196.605,387.868 193.5,386C 197.148,386.272 200.482,387.438 203.5,389.5 Z"/></g>
<g><path style="opacity:1" fill="#c57a26" d="M 323.5,381.5 C 314.331,386.09 304.997,390.09 295.5,393.5C 290.167,394.5 284.833,395.5 279.5,396.5C 278.761,396.631 278.094,396.464 277.5,396C 279.167,395.667 280.833,395.333 282.5,395C 273.328,393.425 273.662,392.091 283.5,391C 281.167,390.667 278.833,390.333 276.5,390C 277.833,389.333 279.167,388.667 280.5,388C 278.323,386.798 275.989,386.298 273.5,386.5C 271.219,385.366 271.219,384.032 273.5,382.5C 277.737,383.881 282.07,384.881 286.5,385.5C 291.316,386.65 296.316,386.816 301.5,386C 309.408,384.197 317.075,381.697 324.5,378.5C 329.16,375.675 333.827,373.175 338.5,371C 333.597,374.752 328.597,378.252 323.5,381.5 Z"/></g>
<g><path style="opacity:1" fill="#a66726" d="M 273.5,386.5 C 275.989,386.298 278.323,386.798 280.5,388C 279.167,388.667 277.833,389.333 276.5,390C 278.833,390.333 281.167,390.667 283.5,391C 273.662,392.091 273.328,393.425 282.5,395C 280.833,395.333 279.167,395.667 277.5,396C 278.094,396.464 278.761,396.631 279.5,396.5C 276.997,397.371 274.33,398.037 271.5,398.5C 269.167,398.5 266.833,398.5 264.5,398.5C 259.684,397.674 254.684,397.174 249.5,397C 253.152,396.501 256.818,396.335 260.5,396.5C 264.226,396.823 267.893,396.489 271.5,395.5C 267.095,394.958 262.429,394.458 257.5,394C 262.234,393.317 266.9,392.317 271.5,391C 270.833,390.333 270.167,389.667 269.5,389C 271.112,388.28 272.612,388.446 274,389.5C 274.47,388.423 274.303,387.423 273.5,386.5 Z"/></g>
<g><path style="opacity:1" fill="#8f602c" d="M 203.5,389.5 C 213.651,392.621 223.985,394.954 234.5,396.5C 234.5,397.167 234.167,397.5 233.5,397.5C 227.41,397.015 221.41,396.015 215.5,394.5C 211.266,393.205 207.266,391.539 203.5,389.5 Z"/></g>
<g><path style="opacity:1" fill="#724f2d" d="M 251.5,368.5 C 254.792,370.458 257.792,372.791 260.5,375.5C 260.062,375.435 259.728,375.601 259.5,376C 260.126,376.75 260.626,377.584 261,378.5C 261.654,377.304 262.154,377.304 262.5,378.5C 262.167,379.167 261.833,379.833 261.5,380.5C 262.167,380.833 262.833,381.167 263.5,381.5C 262.098,382.842 262.431,383.676 264.5,384C 262.695,386.403 260.362,388.07 257.5,389C 258.833,389.333 260.167,389.667 261.5,390C 257.5,391 253.5,392 249.5,393C 257.5,393.667 257.5,394.333 249.5,395C 253.356,395.177 257.023,395.677 260.5,396.5C 256.818,396.335 253.152,396.501 249.5,397C 254.684,397.174 259.684,397.674 264.5,398.5C 257.891,399.423 251.224,399.756 244.5,399.5C 240.688,398.974 237.021,398.307 233.5,397.5C 234.167,397.5 234.5,397.167 234.5,396.5C 235.492,396.672 236.158,396.338 236.5,395.5C 237.167,395.5 237.5,395.167 237.5,394.5C 238.492,394.672 239.158,394.338 239.5,393.5C 239.5,393.167 239.5,392.833 239.5,392.5C 240.167,392.5 240.833,392.5 241.5,392.5C 242.946,393.613 244.613,393.78 246.5,393C 241.167,392.333 241.167,391.667 246.5,391C 245.833,390.667 245.167,390.333 244.5,390C 247.544,389.641 247.878,388.974 245.5,388C 248.167,387.333 248.167,386.667 245.5,386C 247.246,385.529 248.913,384.862 250.5,384C 248.122,383.026 248.456,382.359 251.5,382C 252.833,381.333 252.833,380.667 251.5,380C 252.328,379.085 253.328,378.419 254.5,378C 254.198,376.345 252.864,375.012 250.5,374C 253.167,373.333 253.167,372.667 250.5,372C 250.619,370.855 250.952,369.688 251.5,368.5 Z"/></g>
<g><path style="opacity:1" fill="#383531" d="M 174.5,362.5 C 176.426,364.293 178.759,365.293 181.5,365.5C 184.797,367.601 188.463,368.935 192.5,369.5C 202.805,373.936 213.472,377.603 224.5,380.5C 226.792,382.267 229.458,383.267 232.5,383.5C 235.405,384.911 237.738,386.245 239.5,387.5C 222.783,382.204 206.117,377.037 189.5,372C 205.888,378.407 222.555,383.907 239.5,388.5C 240.263,389.268 241.263,389.768 242.5,390C 239.833,390 237.167,390 234.5,390C 237.004,390.698 239.337,391.531 241.5,392.5C 240.833,392.5 240.167,392.5 239.5,392.5C 222.723,388.907 206.39,383.907 190.5,377.5C 191.568,376.566 192.901,376.232 194.5,376.5C 191.152,374.745 187.652,373.078 184,371.5C 183.5,371.667 183,371.833 182.5,372C 184.5,373 186.5,374 188.5,375C 184.619,374.573 180.953,373.24 177.5,371C 181.095,370.026 180.762,369.193 176.5,368.5C 174.969,367.075 175.302,366.409 177.5,366.5C 175.9,365.356 174.233,364.189 172.5,363C 173.094,362.536 173.761,362.369 174.5,362.5 Z"/></g>
<g><path style="opacity:1" fill="#916935" d="M 194.5,376.5 C 207.574,380.358 220.574,384.524 233.5,389C 232.167,389.667 230.833,389.667 229.5,389C 217.441,385.58 205.774,381.414 194.5,376.5 Z"/></g>
<g><path style="opacity:1" fill="#9e844a" d="M 177.5,366.5 C 180.016,366.755 182.35,367.589 184.5,369C 181.758,369.295 179.425,368.462 177.5,366.5 Z"/></g>
<g><path style="opacity:1" fill="#414141" d="M 295.5,393.5 C 296.552,393.351 297.552,393.517 298.5,394C 297.931,429.117 297.597,464.283 297.5,499.5C 288.833,499.5 280.167,499.5 271.5,499.5C 271.5,465.833 271.5,432.167 271.5,398.5C 274.33,398.037 276.997,397.371 279.5,396.5C 284.833,395.5 290.167,394.5 295.5,393.5 Z"/></g>
<g><path style="opacity:1" fill="#343434" d="M 215.5,394.5 C 221.41,396.015 227.41,397.015 233.5,397.5C 237.021,398.307 240.688,398.974 244.5,399.5C 244.167,432.833 243.833,466.167 243.5,499.5C 234.167,499.5 224.833,499.5 215.5,499.5C 215.5,464.5 215.5,429.5 215.5,394.5 Z"/></g>
<g><path style="opacity:1" fill="#875728" d="M 260.5,375.5 C 263.95,377.609 267.616,379.276 271.5,380.5C 272.167,381.167 272.833,381.833 273.5,382.5C 271.219,384.032 271.219,385.366 273.5,386.5C 274.303,387.423 274.47,388.423 274,389.5C 272.612,388.446 271.112,388.28 269.5,389C 270.167,389.667 270.833,390.333 271.5,391C 266.9,392.317 262.234,393.317 257.5,394C 262.429,394.458 267.095,394.958 271.5,395.5C 267.893,396.489 264.226,396.823 260.5,396.5C 257.023,395.677 253.356,395.177 249.5,395C 257.5,394.333 257.5,393.667 249.5,393C 253.5,392 257.5,391 261.5,390C 260.167,389.667 258.833,389.333 257.5,389C 260.362,388.07 262.695,386.403 264.5,384C 262.431,383.676 262.098,382.842 263.5,381.5C 262.833,381.167 262.167,380.833 261.5,380.5C 261.833,379.833 262.167,379.167 262.5,378.5C 262.154,377.304 261.654,377.304 261,378.5C 260.626,377.584 260.126,376.75 259.5,376C 259.728,375.601 260.062,375.435 260.5,375.5 Z"/></g>
<g><path style="opacity:1" fill="#3b3b3b" d="M 264.5,398.5 C 266.833,398.5 269.167,398.5 271.5,398.5C 271.5,432.167 271.5,465.833 271.5,499.5C 262.167,499.5 252.833,499.5 243.5,499.5C 243.833,466.167 244.167,432.833 244.5,399.5C 251.224,399.756 257.891,399.423 264.5,398.5 Z"/></g>
</svg>
