<?xml version="1.0" standalone="no"?>
<!DOCTYPE svg PUBLIC "-//W3C//DTD SVG 20010904//EN"
 "http://www.w3.org/TR/2001/REC-SVG-20010904/DTD/svg10.dtd">
<svg version="1.0" xmlns="http://www.w3.org/2000/svg"
 width="429.000000pt" height="429.000000pt" viewBox="0 0 429.000000 429.000000"
 preserveAspectRatio="xMidYMid meet">

<g transform="translate(0.000000,429.000000) scale(0.100000,-0.100000)"
fill="#000000" stroke="none">
<path d="M501 3688 l-411 -513 0 -1027 0 -1028 406 -507 c223 -280 418 -515
432 -523 24 -13 181 -15 1217 -18 655 -1 1205 0 1222 3 27 5 48 25 111 103
512 638 724 906 732 928 6 16 10 395 10 1015 0 846 -2 995 -15 1025 -10 25
-660 851 -695 884 -3 3 -21 25 -39 50 -19 25 -50 62 -70 83 l-35 37 -1227 0
-1227 0 -411 -512z m1689 -628 c157 -53 229 -96 325 -194 79 -81 137 -173 165
-263 125 -404 -93 -810 -491 -913 -41 -11 -94 -20 -118 -20 -51 0 -50 8 0 15
71 9 189 45 248 74 34 17 61 34 61 36 0 3 -13 -1 -30 -10 -47 -24 -36 -11 38
43 37 28 81 65 97 83 33 35 21 31 -40 -14 -30 -22 -24 -14 21 29 279 271 235
776 -88 995 -109 74 -245 119 -363 119 -84 0 -202 -28 -280 -66 -192 -93 -307
-244 -360 -470 -14 -58 -23 -110 -20 -115 4 -5 1 -9 -4 -9 -14 0 -14 71 -1
128 6 23 12 59 15 78 5 44 63 159 112 226 93 127 277 237 438 262 52 8 238 -2
275 -14z m-355 -220 c5 -8 -56 -361 -81 -470 -4 -19 13 -6 79 57 148 142 365
306 521 393 37 21 57 28 54 19 -5 -15 -39 -42 -179 -139 -189 -132 -410 -315
-463 -385 -19 -24 -31 -60 -42 -120 -9 -47 -13 -89 -9 -93 4 -4 70 -6 148 -6
142 2 301 22 377 48 28 10 40 10 37 3 -6 -19 -138 -55 -264 -73 -109 -15 -256
-14 -297 2 -10 4 -18 -20 -31 -84 -9 -49 -21 -95 -25 -103 -19 -30 -19 2 0 87
25 113 25 108 -10 121 -48 18 -35 80 39 178 38 50 38 50 75 295 20 135 39 253
42 263 6 19 19 22 29 7z m-374 -857 c18 -26 48 -65 67 -88 19 -22 10 -15 -19
16 -49 51 -98 119 -85 119 3 0 20 -21 37 -47z m288 -219 c14 -12 -19 -1 -35
12 -18 14 -18 14 6 3 14 -6 27 -13 29 -15z m67 -20 c13 -3 24 -10 24 -15 0
-12 -5 -11 -45 5 -34 15 -51 34 -19 22 9 -3 27 -9 40 -12z m-1638 -347 c4 -46
14 -46 47 -3 25 33 53 52 63 42 2 -3 -12 -25 -33 -50 l-37 -45 36 -44 c40 -49
43 -57 22 -57 -8 0 -29 20 -47 45 -18 25 -36 45 -41 45 -4 0 -8 -20 -8 -45 0
-33 -4 -45 -15 -45 -12 0 -15 18 -15 101 0 76 3 100 13 97 6 -3 13 -21 15 -41z
m310 -34 c44 -118 46 -123 28 -123 -9 0 -18 11 -22 25 -5 22 -12 25 -50 25
-38 0 -44 -3 -50 -25 -6 -23 -34 -36 -34 -16 0 7 19 59 59 164 18 46 37 32 69
-50z m152 -8 l0 -85 35 0 c24 0 35 -5 35 -15 0 -11 -12 -15 -50 -15 l-50 0 0
93 c0 52 3 97 7 100 18 18 23 0 23 -78z m388 74 c32 -11 48 -34 31 -44 -5 -4
-16 1 -25 9 -8 9 -28 16 -44 16 -60 0 -92 -78 -50 -120 27 -27 85 -27 100 -1
15 28 13 31 -20 31 -16 0 -30 5 -30 10 0 6 20 10 45 10 l45 0 0 -50 c0 -27 -4
-50 -10 -50 -5 0 -10 7 -10 16 0 14 -2 14 -22 0 -45 -32 -107 -16 -133 34 -28
54 -12 109 39 134 37 19 44 19 84 5z m172 -89 c0 -82 -3 -100 -15 -100 -12 0
-15 17 -15 93 0 52 3 97 7 100 18 19 23 -1 23 -93z m210 85 c0 -11 -11 -15
-40 -15 -39 0 -40 -1 -37 -27 3 -23 9 -29 35 -31 41 -4 41 -20 0 -24 -30 -3
-32 -6 -36 -43 -4 -45 -6 -50 -21 -40 -12 7 -16 177 -4 188 3 4 28 7 55 7 36
0 48 -4 48 -15z m190 0 c0 -9 -9 -15 -25 -15 -25 0 -25 -1 -25 -85 0 -69 -3
-85 -15 -85 -12 0 -15 16 -15 85 0 84 0 85 -25 85 -24 0 -32 10 -18 23 3 4 33
7 65 7 45 0 58 -3 58 -15z m293 4 c12 -7 25 -17 29 -23 12 -18 -15 -26 -33
-10 -23 21 -64 15 -64 -10 0 -13 12 -23 39 -32 50 -18 66 -32 66 -57 0 -54
-74 -75 -124 -36 -39 31 -18 48 22 19 25 -18 33 -20 51 -10 32 17 22 43 -24
58 -51 17 -65 29 -65 58 0 43 58 66 103 43z m155 -37 l3 -42 45 0 44 0 0 45
c0 33 4 45 15 45 12 0 15 -18 15 -100 0 -82 -3 -100 -15 -100 -11 0 -15 12
-15 45 l0 45 -45 0 -45 0 0 -45 c0 -33 -4 -45 -15 -45 -12 0 -15 18 -15 101 0
76 3 100 13 97 6 -3 13 -23 15 -46z m380 13 c53 -62 8 -165 -73 -165 -76 0
-123 95 -79 158 34 49 112 52 152 7z m227 10 c30 -29 31 -45 8 -74 -12 -14
-30 -22 -55 -23 -37 -1 -38 -2 -38 -40 0 -27 -4 -38 -15 -38 -12 0 -15 18 -15
100 l0 100 45 0 c35 0 52 -6 70 -25z m354 10 c31 -16 46 -42 29 -47 -7 -3 -20
4 -30 14 -42 42 -108 11 -108 -50 0 -66 50 -91 111 -55 39 23 51 7 16 -23 -63
-54 -158 -10 -159 74 -1 79 71 124 141 87z m231 1 c0 -10 -13 -16 -36 -18 -32
-3 -37 -7 -40 -30 -2 -26 0 -28 32 -28 43 0 45 -18 2 -22 -28 -3 -33 -7 -34
-30 -1 -26 2 -28 37 -28 28 0 39 -4 39 -15 0 -12 -13 -15 -55 -15 l-55 0 0 93
c0 52 3 97 7 100 3 4 28 7 55 7 35 0 48 -4 48 -14z m168 -58 l47 -73 3 73 c2
55 6 72 17 72 12 0 15 -19 15 -100 0 -125 -11 -129 -77 -28 l-48 71 -3 -71
c-2 -55 -6 -72 -17 -72 -12 0 -15 19 -15 100 0 125 11 129 78 28z m290 55 c2
-8 -6 -13 -22 -13 -26 0 -26 0 -26 -85 0 -69 -3 -85 -15 -85 -12 0 -15 16 -15
85 0 84 0 85 -25 85 -16 0 -25 6 -25 15 0 13 11 15 62 13 38 -2 63 -8 66 -15z
m182 2 c0 -10 -11 -15 -35 -15 -32 0 -35 -2 -35 -30 0 -28 3 -30 36 -30 21 0
33 -4 29 -10 -3 -5 -19 -10 -36 -10 -26 0 -29 -3 -29 -30 0 -28 3 -30 35 -30
24 0 35 -5 35 -15 0 -11 -12 -15 -50 -15 l-50 0 0 100 0 100 50 0 c38 0 50 -4
50 -15z m200 -5 c25 -25 26 -55 1 -77 -20 -16 -19 -17 6 -61 24 -40 24 -44 7
-40 -10 2 -29 22 -42 46 -32 57 -52 56 -52 -3 0 -33 -4 -45 -15 -45 -12 0 -15
18 -15 100 l0 100 45 0 c32 0 51 -6 65 -20z"/>
<path d="M2681 2274 c0 -11 3 -14 6 -6 3 7 2 16 -1 19 -3 4 -6 -2 -5 -13z"/>
<path d="M2671 2224 c0 -11 3 -14 6 -6 3 7 2 16 -1 19 -3 4 -6 -2 -5 -13z"/>
<path d="M2651 2159 c-7 -24 -22 -62 -33 -84 -12 -26 -14 -33 -3 -21 19 24 57
125 52 139 -1 5 -9 -10 -16 -34z"/>
<path d="M2560 1975 c-12 -19 -56 -67 -98 -107 -42 -39 -64 -62 -48 -50 15 12
32 19 37 16 5 -3 8 -1 7 3 -2 5 20 32 47 61 45 46 93 112 81 112 -2 0 -14 -16
-26 -35z"/>
<path d="M1680 2209 c-35 -58 -38 -99 -6 -99 13 0 43 117 32 127 -3 3 -14 -10
-26 -28z"/>
<path d="M426 1361 c-21 -53 -21 -51 14 -51 34 0 37 11 16 60 l-13 32 -17 -41z"/>
<path d="M2310 1390 c-26 -26 -26 -81 -2 -103 25 -22 75 -21 95 1 23 25 22 85
-1 105 -25 23 -68 21 -92 -3z"/>
<path d="M2570 1375 c0 -32 2 -35 30 -35 19 0 33 7 40 21 15 27 -3 49 -41 49
-26 0 -29 -3 -29 -35z"/>
<path d="M4000 1381 c0 -26 4 -31 23 -31 57 1 66 53 9 58 -30 3 -32 1 -32 -27z"/>
</g>
</svg>
